<?xml version="1.0" encoding="utf-8"?>
<!-- Generator: Adobe Illustrator 23.0.2, SVG Export Plug-In . SVG Version: 6.00 Build 0)  -->
<svg version="1.1" id="Слой_1" xmlns="http://www.w3.org/2000/svg" xmlns:xlink="http://www.w3.org/1999/xlink" x="0px" y="0px"
	 viewBox="0 0 265.5 64.3" style="enable-background:new 0 0 265.5 64.3;" xml:space="preserve">
<style type="text/css">
	.st0{fill:#0E0F0F;}
</style>
<path id="path2828" class="st0" d="M197.4,64.2c-12.9-1.1-24.2-5.9-31.6-13.3c-4.2-4.2-6.8-8.8-7.9-14.2c-0.5-2.5-0.5-6.5,0-9
	c1.6-7.5,6.4-14,14.1-19c17.4-11.4,44-11.3,61.2,0.1c2.3,1.5,3.8,2.7,5.8,4.8c2.6,2.6,4.4,5.1,6.4,8.9c0.1,0.1,0.4,0.3,0.8,0.4
	c1.2,0.3,2.8,1.2,4.2,2.4c1,0.9,1.8,2,3.7,4.9c2,3,10.8,16.6,11.4,17.5c0.2,0.3-0.2,0.9-0.7,0.9c-0.3,0-0.6-0.2-1.1-1
	c-0.3-0.5-2.6-4.1-5-7.8c-8.5-13.2-9-13.9-11.4-15l-1.3-0.6h-3.7c-3.7,0-3.7,0-3.8,0.4c-0.5,2.1-0.6,2.6-0.5,2.7
	c0.1,0.1,2.2,1.3,4.6,2.6l4.5,2.5l-0.3,0.6c-0.2,0.3-0.3,0.6-0.4,0.6s-3.9-2.1-8.4-4.7c-4.6-2.6-8.6-4.7-8.9-4.8
	c-1.3-0.4-3.3,1.1-3.3,2.4c0,1.3,0.4,1.7,8.4,8.3c5,4.1,7.9,6.6,8.3,7.2c0.8,1.1,1.6,2.6,2.3,4.6c1.3,3.4,3.4,5.3,6.9,6.2L253,53
	l-0.1,0.6c-0.1,0.3-0.1,0.7-0.2,0.7c-0.1,0.2-2.5-0.6-3.8-1.2c-2.1-1-3.5-2.4-4.9-4.9c0,0-0.8,0.3-1.8,0.6c-1.8,0.6-1.8,0.7-3.5,2.3
	c-7.1,6.9-17.3,11.3-29.6,12.8C207.2,64.2,199.5,64.4,197.4,64.2L197.4,64.2z M209.6,62c5.6-0.7,10-1.9,14.6-3.7
	c4.8-2,9.3-4.8,12.5-7.8l1.2-1.2l-3.1-1.5c-3.4-1.6-3.7-1.9-4.1-3.3c-0.3-0.9,0-1.9,0.9-2.8l0.7-0.7l-1.5-1.1
	c-1.2-0.9-1.5-1.3-1.7-1.8c-0.4-0.9-0.2-2,0.4-2.8l0.4-0.6l-4.6-0.8c-2.5-0.4-4.9-0.9-5.2-1c-0.7-0.2-1.4-1-1.6-1.8
	c-0.1-0.4,2.2-11.4,2.7-13c0.2-0.7,1.2-1.6,1.9-1.7c0.8-0.1,14.3,2.2,15,2.6c1.1,0.6,1.4,1.6,1.1,3.2l-0.1,0.6l0.8,0
	c0.4,0,1.4-0.1,2.2-0.1l1.4-0.1l-0.7-1.3c-2.1-4-6-8-10.7-11.1c-2.2-1.5-7-3.8-9.8-4.8c-4.1-1.5-9-2.5-13.7-3
	c-2.6-0.3-9.4-0.3-11.9,0c-6,0.7-11.5,2-16.3,4.1c-11.1,4.7-18.5,12.5-20.4,21.5c-0.5,2.3-0.5,6.4-0.1,8.5c1,4.7,3.2,8.7,6.8,12.5
	c7.3,7.7,18.4,12.4,31.8,13.5C200,62.5,207.8,62.3,209.6,62z M207.1,53.7c-0.7-0.2-1.4-1-1.5-1.8c-0.1-0.5,0-0.9,0.8-2.3
	c3-5.7,4.2-11,4.2-17.3c0-6.2-1.1-11-4-16.7c-0.6-1.2-1.1-2.4-1.1-2.5c0-0.6,0.5-1.5,1.1-1.8c0.8-0.5,2-0.4,2.6,0.2
	c0.2,0.2,0.8,1.2,1.4,2.2c2,4,3.4,8.3,4.1,12.8c0.4,2.8,0.5,8.1,0.2,10.7c-0.6,4.7-1.9,9-3.9,13.1c-1.2,2.5-2,3.5-2.6,3.5
	c-0.1,0-0.3,0-0.5,0.1C207.8,53.8,207.4,53.7,207.1,53.7L207.1,53.7z M198.9,49.4c-1.1-0.3-1.8-1.6-1.5-2.6c0.1-0.2,0.6-1.3,1.1-2.4
	c2.3-4.6,3.2-9.6,2.7-14.4c-0.4-4-1.1-6.5-2.9-10.2c-1.2-2.5-1.3-2.9-0.6-3.8c0.7-0.9,2.3-1.1,3.2-0.3c0.6,0.6,2.5,4.5,3.2,6.7
	c2.4,7.4,2,15.3-1,22.6C201.6,48.7,200.5,49.8,198.9,49.4z M190.5,45c-0.7-0.3-1.2-1-1.4-1.7c-0.1-0.4,0.1-0.9,0.8-2.5
	c2.8-5.8,2.9-11.3,0.1-16.9c-1.2-2.5-1.2-3-0.2-3.9c0.5-0.5,0.7-0.6,1.4-0.6c1.2,0,1.8,0.6,2.9,2.8c1.7,3.4,2.3,6.3,2.3,10.1
	c0,3.9-0.6,6.5-2.4,10.1c-1,2-1.5,2.6-2.5,2.7C191.2,45.2,190.7,45.1,190.5,45L190.5,45z M182.5,40.9c-0.5-0.2-1.1-0.9-1.3-1.5
	c-0.2-0.7,0-1.2,0.7-2.5c1-1.6,1.2-2.5,1.2-4.7c0-2.1-0.2-3-1.2-4.7c-0.3-0.6-0.7-1.2-0.8-1.5c-0.3-1.1,0.6-2.4,1.8-2.6
	c1-0.2,1.7,0.3,2.7,1.7c2.7,4.3,2.7,10,0,14.2C184.7,40.9,183.7,41.4,182.5,40.9L182.5,40.9z M241.5,47.6c0.9-0.3,1.7-0.6,1.8-0.7
	c0.1-0.1-0.1-0.6-0.4-1.3c-0.5-1.4-0.5-1.3-2.4-1c-2.1,0.4-3.3,0-5.6-1.7c-0.6-0.5-1.3-0.8-1.4-0.8c-0.2,0-0.5,0.2-0.8,0.5
	c-0.6,0.6-0.7,1.6-0.2,2.2c0.4,0.5,6.2,3.3,6.9,3.3C239.5,48.2,240.5,47.9,241.5,47.6L241.5,47.6z M240.5,43.1
	c0.9-0.2,1-0.2,0.8-0.5c-0.2-0.3-8.2-6.9-8.8-7.3c-0.6-0.3-1-0.3-1.5,0.3c-1.4,1.5-1.2,1.8,2.4,4.6
	C237.7,43.4,238.2,43.6,240.5,43.1z M229.8,33.1c0,0-0.9-0.8-2-1.7c-2.7-2.3-3.3-3.1-3.3-4.8c0-1.4,0.9-2.7,2.4-3.5
	c0.7-0.4,2.1-0.5,2.8-0.3c0.5,0.2,2.9,1.5,6.2,3.4l0.7,0.4l0.6-2.7c0.6-2.8,0.6-3.5,0.1-3.7c-0.2-0.1-3.4-0.6-7.1-1.3
	c-6.6-1.2-7.4-1.2-7.7-0.7c-0.2,0.3-2.7,12-2.7,12.4c0,0.2,0.1,0.6,0.3,0.7c0.2,0.1,2.3,0.6,4.8,1C229.7,33.2,229.8,33.2,229.8,33.1
	z"/>
<path id="XMLID_34_" class="st0" d="M20.8,15.4c-1.3,1.6-3.4,2.8-5.6,2.6c-0.3-2.1,0.8-4.4,2-5.8c1.3-1.6,3.6-2.8,5.5-2.8
	C22.9,11.7,22.1,13.8,20.8,15.4 M22.7,18.5c-3.1-0.2-5.7,1.7-7.2,1.7c-1.5,0-3.7-1.7-6.1-1.6c-3.2,0-6.1,1.8-7.7,4.7
	C-1.6,29,0.8,37.4,4,42.1c1.6,2.3,3.4,4.8,5.9,4.7c2.3-0.1,3.3-1.5,6.1-1.5c2.8,0,3.7,1.5,6.1,1.5c2.6,0,4.2-2.3,5.7-4.6
	c1.8-2.6,2.5-5.1,2.6-5.3c0,0-4.9-1.9-5-7.6c0-4.7,3.9-7,4-7.1C27.3,18.9,23.9,18.6,22.7,18.5 M40.4,12.1v34.4h5.3V34.7h7.4
	c6.8,0,11.5-4.6,11.5-11.3S60,12.1,53.3,12.1L40.4,12.1L40.4,12.1z M45.7,16.6h6.2c4.6,0,7.3,2.5,7.3,6.8s-2.6,6.8-7.3,6.8h-6.1
	V16.6z M74.4,46.8c3.4,0,6.5-1.7,7.9-4.4h0.1v4.1h4.9V29.4c0-5-4-8.2-10.1-8.2c-5.7,0-9.9,3.2-10,7.7H72c0.4-2.1,2.4-3.5,5.1-3.5
	c3.3,0,5.1,1.5,5.1,4.3v1.9L75.5,32c-6.2,0.4-9.6,2.9-9.6,7.3C66,43.8,69.4,46.8,74.4,46.8z M75.8,42.7c-2.8,0-4.7-1.4-4.7-3.5
	c0-2.2,1.7-3.4,5.1-3.6l5.9-0.4v1.9C82.2,40.4,79.5,42.7,75.8,42.7z M93.9,55.9c5.2,0,7.7-2,9.8-8l9.4-26.3h-5.4l-6.3,20.3h-0.1
	L95,21.5h-5.6l9,25.1L98,48.1c-0.8,2.6-2.1,3.6-4.5,3.6c-0.4,0-1.2,0-1.6-0.1v4.1C92.2,55.8,93.5,55.9,93.9,55.9z"/>
</svg>
